<svg width="599" height="165" viewBox="0 0 599 165" fill="none" xmlns="http://www.w3.org/2000/svg">
<path d="M17.792 113C16.3413 113 15.1467 112.531 14.208 111.592C13.2693 110.653 12.8 109.459 12.8 108.008V18.024C12.8 16.5733 13.2693 15.3787 14.208 14.44C15.1467 13.5013 16.3413 13.032 17.792 13.032H40.832C48.1707 13.032 54.8693 14.2693 60.928 16.744C67.072 19.1333 72.3627 22.5893 76.8 27.112C81.2373 31.5493 84.6507 36.7973 87.04 42.856C89.5147 48.9147 90.752 55.6133 90.752 62.952C90.752 70.2907 89.5147 77.032 87.04 83.176C84.6507 89.2347 81.2373 94.5253 76.8 99.048C72.3627 103.485 67.072 106.941 60.928 109.416C54.8693 111.805 48.1707 113 40.832 113H17.792ZM22.784 104.04H40.832C48.6827 104.04 55.5947 102.291 61.568 98.792C67.6267 95.208 72.3627 90.344 75.776 84.2C79.1893 77.9707 80.896 70.888 80.896 62.952C80.896 55.016 79.1893 47.976 75.776 41.832C72.3627 35.6027 67.6267 30.7387 61.568 27.24C55.5947 23.7413 48.6827 21.992 40.832 21.992H22.784V104.04ZM117.06 113C115.524 113 114.287 112.573 113.348 111.72C112.495 110.781 112.068 109.544 112.068 108.008V47.976C112.068 46.44 112.495 45.2453 113.348 44.392C114.287 43.4533 115.524 42.984 117.06 42.984C118.511 42.984 119.663 43.4533 120.516 44.392C121.455 45.2453 121.924 46.44 121.924 47.976V108.008C121.924 109.544 121.455 110.781 120.516 111.72C119.663 112.573 118.511 113 117.06 113ZM116.932 29.672C115.055 29.672 113.433 28.9893 112.068 27.624C110.703 26.2587 110.02 24.5947 110.02 22.632C110.02 20.4987 110.703 18.8347 112.068 17.64C113.519 16.36 115.183 15.72 117.06 15.72C118.852 15.72 120.431 16.36 121.796 17.64C123.247 18.8347 123.972 20.4987 123.972 22.632C123.972 24.5947 123.289 26.2587 121.924 27.624C120.559 28.9893 118.895 29.672 116.932 29.672ZM177.868 113.64C171.127 113.64 165.153 112.147 159.948 109.16C154.743 106.088 150.647 101.864 147.66 96.488C144.759 91.112 143.308 84.968 143.308 78.056C143.308 71.0587 144.844 64.872 147.916 59.496C150.988 54.12 155.212 49.9387 160.588 46.952C165.964 43.88 172.065 42.344 178.892 42.344C185.804 42.344 191.905 43.88 197.196 46.952C202.572 49.9387 206.753 54.12 209.74 59.496C212.812 64.872 214.391 71.0587 214.476 78.056L208.716 81.128C208.716 87.4427 207.393 93.0747 204.748 98.024C202.103 102.888 198.433 106.728 193.74 109.544C189.132 112.275 183.841 113.64 177.868 113.64ZM179.148 140.648C172.407 140.648 166.476 139.368 161.356 136.808C156.236 134.333 152.012 130.92 148.684 126.568C147.745 125.544 147.319 124.435 147.404 123.24C147.575 122.045 148.215 121.064 149.324 120.296C150.433 119.528 151.671 119.272 153.036 119.528C154.401 119.784 155.468 120.424 156.236 121.448C158.711 124.52 161.868 126.995 165.708 128.872C169.633 130.749 174.156 131.688 179.276 131.688C184.055 131.688 188.364 130.536 192.204 128.232C196.044 125.928 199.073 122.685 201.292 118.504C203.596 114.323 204.748 109.416 204.748 103.784V84.328L208.46 76.904L214.476 78.056V104.168C214.476 111.08 212.94 117.267 209.868 122.728C206.796 128.275 202.615 132.627 197.324 135.784C192.033 139.027 185.975 140.648 179.148 140.648ZM178.892 104.68C183.927 104.68 188.364 103.571 192.204 101.352C196.129 99.048 199.201 95.8907 201.42 91.88C203.639 87.8693 204.748 83.2613 204.748 78.056C204.748 72.8507 203.639 68.2427 201.42 64.232C199.201 60.136 196.129 56.9787 192.204 54.76C188.364 52.456 183.927 51.304 178.892 51.304C173.857 51.304 169.377 52.456 165.452 54.76C161.527 56.9787 158.455 60.136 156.236 64.232C154.017 68.2427 152.908 72.8507 152.908 78.056C152.908 83.2613 154.017 87.8693 156.236 91.88C158.455 95.8907 161.527 99.048 165.452 101.352C169.377 103.571 173.857 104.68 178.892 104.68ZM240.685 113C239.149 113 237.912 112.573 236.973 111.72C236.12 110.781 235.693 109.544 235.693 108.008V47.976C235.693 46.44 236.12 45.2453 236.973 44.392C237.912 43.4533 239.149 42.984 240.685 42.984C242.136 42.984 243.288 43.4533 244.141 44.392C245.08 45.2453 245.549 46.44 245.549 47.976V108.008C245.549 109.544 245.08 110.781 244.141 111.72C243.288 112.573 242.136 113 240.685 113ZM240.557 29.672C238.68 29.672 237.058 28.9893 235.693 27.624C234.328 26.2587 233.645 24.5947 233.645 22.632C233.645 20.4987 234.328 18.8347 235.693 17.64C237.144 16.36 238.808 15.72 240.685 15.72C242.477 15.72 244.056 16.36 245.421 17.64C246.872 18.8347 247.597 20.4987 247.597 22.632C247.597 24.5947 246.914 26.2587 245.549 27.624C244.184 28.9893 242.52 29.672 240.557 29.672ZM268.981 113C267.616 113 266.421 112.531 265.397 111.592C264.458 110.568 263.989 109.373 263.989 108.008V18.024C263.989 16.5733 264.458 15.3787 265.397 14.44C266.336 13.5013 267.53 13.032 268.981 13.032H329.013C330.464 13.032 331.658 13.5013 332.597 14.44C333.536 15.2933 334.005 16.4453 334.005 17.896C334.005 19.176 333.536 20.2853 332.597 21.224C331.658 22.1627 330.464 22.632 329.013 22.632H273.973V57.96H314.037C315.488 57.96 316.682 58.4293 317.621 59.368C318.56 60.3067 319.029 61.4587 319.029 62.824C319.029 64.1893 318.56 65.3413 317.621 66.28C316.682 67.2187 315.488 67.688 314.037 67.688H273.973V108.008C273.973 109.373 273.504 110.568 272.565 111.592C271.626 112.531 270.432 113 268.981 113ZM365.749 113C362.336 113 359.264 112.061 356.533 110.184C353.888 108.307 351.797 105.704 350.261 102.376C348.81 99.048 348.085 95.208 348.085 90.856V17.896C348.085 16.4453 348.512 15.2933 349.365 14.44C350.304 13.5013 351.498 13.032 352.949 13.032C354.4 13.032 355.552 13.5013 356.405 14.44C357.344 15.2933 357.813 16.4453 357.813 17.896V90.856C357.813 94.5253 358.538 97.512 359.989 99.816C361.525 102.12 363.445 103.272 365.749 103.272H368.949C370.229 103.272 371.253 103.741 372.021 104.68C372.789 105.533 373.173 106.685 373.173 108.136C373.173 109.587 372.618 110.781 371.509 111.72C370.485 112.573 369.12 113 367.413 113H365.749ZM414.767 113.64C407.94 113.64 401.839 112.104 396.463 109.032C391.087 105.96 386.863 101.736 383.791 96.36C380.719 90.984 379.183 84.8827 379.183 78.056C379.183 71.144 380.719 65 383.791 59.624C386.863 54.248 391.087 50.024 396.463 46.952C401.839 43.88 407.94 42.344 414.767 42.344C421.594 42.344 427.652 43.88 432.943 46.952C438.319 50.024 442.543 54.248 445.615 59.624C448.687 65 450.266 71.144 450.351 78.056C450.351 84.8827 448.772 90.984 445.615 96.36C442.543 101.736 438.319 105.96 432.943 109.032C427.652 112.104 421.594 113.64 414.767 113.64ZM414.767 104.68C419.716 104.68 424.154 103.528 428.079 101.224C432.004 98.92 435.076 95.7627 437.295 91.752C439.514 87.7413 440.623 83.176 440.623 78.056C440.623 72.936 439.514 68.3707 437.295 64.36C435.076 60.264 432.004 57.064 428.079 54.76C424.154 52.456 419.716 51.304 414.767 51.304C409.818 51.304 405.38 52.456 401.455 54.76C397.53 57.064 394.415 60.264 392.111 64.36C389.892 68.3707 388.783 72.936 388.783 78.056C388.783 83.176 389.892 87.7413 392.111 91.752C394.415 95.7627 397.53 98.92 401.455 101.224C405.38 103.528 409.818 104.68 414.767 104.68ZM473.616 69.864C473.872 64.5733 475.237 59.8373 477.712 55.656C480.272 51.4747 483.557 48.1893 487.568 45.8C491.664 43.4107 496.187 42.216 501.136 42.216C505.061 42.216 508.091 42.7707 510.224 43.88C512.357 44.9893 513.168 46.6107 512.656 48.744C512.315 50.024 511.717 50.8773 510.864 51.304C510.096 51.7307 509.115 51.9013 507.92 51.816C506.811 51.7307 505.531 51.6453 504.08 51.56C499.301 51.1333 495.035 51.6453 491.28 53.096C487.611 54.4613 484.667 56.5947 482.448 59.496C480.315 62.3973 479.248 65.8533 479.248 69.864H473.616ZM474.384 113C472.848 113 471.653 112.573 470.8 111.72C469.947 110.867 469.52 109.672 469.52 108.136V47.848C469.52 46.312 469.947 45.1173 470.8 44.264C471.653 43.4107 472.848 42.984 474.384 42.984C475.92 42.984 477.115 43.4107 477.968 44.264C478.821 45.1173 479.248 46.312 479.248 47.848V108.136C479.248 109.672 478.821 110.867 477.968 111.72C477.115 112.573 475.92 113 474.384 113ZM553.868 113.64C547.297 113.64 541.409 112.104 536.204 109.032C530.999 105.875 526.86 101.608 523.788 96.232C520.801 90.856 519.308 84.7973 519.308 78.056C519.308 71.2293 520.844 65.128 523.916 59.752C527.073 54.376 531.34 50.152 536.716 47.08C542.092 43.9227 548.151 42.344 554.892 42.344C561.633 42.344 567.649 43.9227 572.94 47.08C578.316 50.152 582.54 54.376 585.612 59.752C588.769 65.128 590.391 71.2293 590.476 78.056L586.508 81.128C586.508 87.272 585.057 92.8187 582.156 97.768C579.34 102.632 575.457 106.515 570.508 109.416C565.644 112.232 560.097 113.64 553.868 113.64ZM554.892 104.68C559.841 104.68 564.236 103.528 568.076 101.224C572.001 98.92 575.073 95.7627 577.292 91.752C579.596 87.656 580.748 83.0907 580.748 78.056C580.748 72.936 579.596 68.3707 577.292 64.36C575.073 60.3493 572.001 57.192 568.076 54.888C564.236 52.4987 559.841 51.304 554.892 51.304C550.028 51.304 545.633 52.4987 541.708 54.888C537.783 57.192 534.668 60.3493 532.364 64.36C530.06 68.3707 528.908 72.936 528.908 78.056C528.908 83.0907 530.06 87.656 532.364 91.752C534.668 95.7627 537.783 98.92 541.708 101.224C545.633 103.528 550.028 104.68 554.892 104.68ZM585.484 113C584.033 113 582.839 112.573 581.9 111.72C580.961 110.781 580.492 109.587 580.492 108.136V86.248L582.924 76.136L590.476 78.056V108.136C590.476 109.587 590.007 110.781 589.068 111.72C588.129 112.573 586.935 113 585.484 113Z" fill="#EC4899"/>
<path d="M448.17 156V129.818H451.188V139.483H451.443C451.665 139.142 451.972 138.707 452.364 138.179C452.764 137.642 453.335 137.165 454.077 136.747C454.827 136.321 455.841 136.108 457.119 136.108C458.773 136.108 460.23 136.521 461.491 137.348C462.753 138.175 463.737 139.347 464.445 140.864C465.152 142.381 465.506 144.17 465.506 146.233C465.506 148.312 465.152 150.115 464.445 151.641C463.737 153.158 462.757 154.334 461.504 155.169C460.251 155.996 458.807 156.409 457.17 156.409C455.909 156.409 454.899 156.2 454.141 155.783C453.382 155.357 452.798 154.875 452.389 154.338C451.98 153.793 451.665 153.341 451.443 152.983H451.085V156H448.17ZM451.136 146.182C451.136 147.665 451.354 148.973 451.788 150.107C452.223 151.232 452.858 152.114 453.693 152.753C454.528 153.384 455.551 153.699 456.761 153.699C458.023 153.699 459.075 153.366 459.919 152.702C460.771 152.028 461.411 151.125 461.837 149.991C462.271 148.849 462.489 147.58 462.489 146.182C462.489 144.801 462.276 143.557 461.849 142.449C461.432 141.332 460.797 140.45 459.945 139.803C459.101 139.146 458.04 138.818 456.761 138.818C455.534 138.818 454.503 139.129 453.668 139.751C452.832 140.365 452.202 141.226 451.776 142.334C451.349 143.433 451.136 144.716 451.136 146.182ZM471.361 163.364C470.849 163.364 470.393 163.321 469.993 163.236C469.592 163.159 469.315 163.082 469.162 163.006L469.929 160.347C470.662 160.534 471.31 160.602 471.872 160.551C472.435 160.5 472.933 160.249 473.368 159.797C473.811 159.354 474.216 158.634 474.582 157.636L475.145 156.102L467.884 136.364H471.156L476.577 152.011H476.781L482.202 136.364H485.474L477.139 158.864C476.764 159.878 476.3 160.717 475.746 161.382C475.192 162.055 474.548 162.554 473.815 162.878C473.091 163.202 472.273 163.364 471.361 163.364ZM501.065 156H497.741L507.354 129.818H510.627L520.241 156H516.917L509.093 133.96H508.888L501.065 156ZM502.292 145.773H515.69V148.585H502.292V145.773ZM524.319 156V129.818H533.165C535.219 129.818 536.898 130.189 538.202 130.93C539.515 131.663 540.487 132.656 541.117 133.909C541.748 135.162 542.063 136.56 542.063 138.102C542.063 139.645 541.748 141.047 541.117 142.308C540.495 143.57 539.532 144.575 538.228 145.325C536.924 146.067 535.254 146.438 533.217 146.438H526.876V143.625H533.114C534.521 143.625 535.65 143.382 536.502 142.896C537.354 142.411 537.972 141.754 538.356 140.928C538.748 140.092 538.944 139.151 538.944 138.102C538.944 137.054 538.748 136.116 538.356 135.29C537.972 134.463 537.35 133.815 536.489 133.347C535.629 132.869 534.487 132.631 533.063 132.631H527.489V156H524.319ZM547.17 156V129.818H562.869V132.631H550.341V141.477H561.693V144.29H550.341V156H547.17ZM576.379 156H568.299V129.818H576.737C579.277 129.818 581.45 130.342 583.257 131.391C585.064 132.43 586.449 133.926 587.412 135.878C588.375 137.821 588.856 140.148 588.856 142.858C588.856 145.585 588.37 147.933 587.399 149.902C586.427 151.862 585.012 153.371 583.154 154.428C581.297 155.476 579.038 156 576.379 156ZM571.47 153.188H576.174C578.339 153.188 580.133 152.77 581.556 151.935C582.98 151.099 584.041 149.911 584.74 148.368C585.439 146.825 585.788 144.989 585.788 142.858C585.788 140.744 585.443 138.925 584.752 137.399C584.062 135.865 583.031 134.689 581.659 133.871C580.287 133.044 578.578 132.631 576.532 132.631H571.47V153.188Z" fill="#EC4899"/>
</svg>
