<svg width="408" height="147" viewBox="0 0 408 147" fill="none" xmlns="http://www.w3.org/2000/svg">
<path d="M11.528 109.424C4.18933 109.424 0.52 106.437 0.52 100.464C0.52 98.16 1.33067 96.0693 2.952 94.192C4.744 92.2293 6.87733 91.248 9.352 91.248C11.144 91.248 12.552 91.8453 13.576 93.04C14.5147 94.1493 14.984 95.344 14.984 96.624C14.984 98.672 14.1307 100.421 12.424 101.872C11.0587 103.152 9.52267 103.792 7.816 103.792C6.36533 103.792 5.04267 103.28 3.848 102.256C4.78667 104.731 7.21867 105.968 11.144 105.968C12.2533 105.968 13.2347 105.84 14.088 105.584C21.1707 103.621 27.3147 99.312 32.52 92.656C34.3973 90.2667 36.872 86.5547 39.944 81.52C43.016 76.4 46.5147 69.872 50.44 61.936C52.232 58.2667 53.8533 54.768 55.304 51.44C56.84 48.0267 58.2907 44.8693 59.656 41.968C66.3973 27.888 71.6027 18.8427 75.272 14.832C71.944 13.7227 68.3173 13.168 64.392 13.168C52.616 13.168 41.1387 17.776 29.96 26.992C24.072 31.856 19.4213 37.0187 16.008 42.48C12.936 47.344 11.4 51.6107 11.4 55.28C11.4 59.5467 13.4053 61.68 17.416 61.68C21.0853 61.68 25.9067 59.632 31.88 55.536C37.9387 51.3547 42.12 46.32 44.424 40.432C44.68 39.7493 45.0213 39.408 45.448 39.408C45.8747 39.5787 46.0027 39.92 45.832 40.432C43.3573 47.9413 38.92 53.9147 32.52 58.352C27.4 61.7653 22.664 63.472 18.312 63.472C14.728 63.472 11.8267 62.3627 9.608 60.144C7.304 57.9253 6.152 54.9813 6.152 51.312C6.152 42.9493 11.528 34.3733 22.28 25.584C34.3973 15.6853 48.3493 10.736 64.136 10.736C66.5253 10.736 68.872 10.864 71.176 11.12C73.48 11.376 75.6987 11.8027 77.832 12.4C83.1227 7.792 88.6267 5.488 94.344 5.488C96.5627 5.488 98.824 5.95733 101.128 6.896C101.725 7.152 101.939 7.49333 101.768 7.92C101.512 8.34666 101.213 8.51733 100.872 8.432C99.592 7.83466 98.056 7.536 96.264 7.536C91.4 7.536 86.8347 9.62666 82.568 13.808C90.248 16.5387 96.1787 20.7627 100.36 26.48C105.053 32.7093 107.4 40.2613 107.4 49.136C107.4 49.9893 107.4 50.8853 107.4 51.824C107.4 52.6773 107.315 53.5733 107.144 54.512C105.779 68.2507 100.232 80.24 90.504 90.48C80.776 100.891 68.872 106.736 54.792 108.016C54.1947 108.101 53.5973 108.144 53 108.144C52.4027 108.229 51.8053 108.272 51.208 108.272C42.5893 108.272 38.28 105.499 38.28 99.952C38.28 98.5867 38.5787 97.264 39.176 95.984C29.8747 104.944 20.6587 109.424 11.528 109.424ZM51.464 105.84C51.8907 105.84 52.3173 105.84 52.744 105.84C53.256 105.84 53.768 105.797 54.28 105.712C66.3973 104.432 76.5093 98.8427 84.616 88.944C91.6987 80.1547 96.0933 69.36 97.8 56.56C97.9707 55.28 98.0987 54.0427 98.184 52.848C98.2693 51.568 98.312 50.3307 98.312 49.136C98.312 33.3493 92.2107 22.512 80.008 16.624C78.5573 18.5013 76.8933 21.4027 75.016 25.328C73.1387 29.2533 71.0907 34.2453 68.872 40.304C67.7627 43.2907 66.696 46.32 65.672 49.392C64.7333 52.464 63.7093 55.4933 62.6 58.48C61.1493 62.576 58.7173 68.0373 55.304 74.864C54.4507 76.4853 53.4693 78.1493 52.36 79.856C51.2507 81.5627 50.0133 83.3547 48.648 85.232L48.904 85.104C51.1227 83.9093 53.512 82.7147 56.072 81.52C58.632 80.3253 61.5333 79.4293 64.776 78.832C67.5067 78.2347 70.1947 77.8507 72.84 77.68C75.5707 77.424 78.2587 77.3813 80.904 77.552C81.5013 77.552 81.8 77.7653 81.8 78.192C81.8 78.704 81.4587 78.96 80.776 78.96C80.3493 78.96 79.8373 78.96 79.24 78.96C78.728 78.8747 78.2587 78.832 77.832 78.832C74.3333 78.832 70.3227 79.472 65.8 80.752C59.9973 82.4587 55.432 84.7627 52.104 87.664C46.472 92.6133 43.656 96.7947 43.656 100.208C43.656 103.963 46.2587 105.84 51.464 105.84ZM127.323 52.464C124.422 52.464 122.971 51.056 122.971 48.24C122.971 45.424 124.336 44.016 127.067 44.016C129.968 44.016 131.419 45.424 131.419 48.24C131.419 51.056 130.054 52.464 127.323 52.464ZM109.915 102C107.44 102 106.203 100.763 106.203 98.288C106.203 96.752 106.715 94.6613 107.739 92.016C109.958 86.5547 112.048 81.52 114.011 76.912C115.974 72.304 117.808 68.1227 119.515 64.368C119.771 63.9413 119.899 63.472 119.899 62.96C119.899 61.7653 119.344 60.4853 118.235 59.12L125.275 58.992C127.664 58.992 128.859 59.5893 128.859 60.784C128.859 61.1253 128.774 61.5093 128.603 61.936C128.432 62.2773 128.219 62.7893 127.963 63.472L116.187 90.736C114.992 93.552 114.395 95.9413 114.395 97.904C114.395 99.952 115.035 101.317 116.315 102H109.915ZM126.027 135.408C121.504 135.408 118.134 133.915 115.915 130.928C114.976 129.477 114.507 127.557 114.507 125.168C114.507 123.291 114.763 121.925 115.275 121.072L117.579 120.944C117.152 122.48 116.939 123.803 116.939 124.912C116.939 129.52 119.627 131.824 125.003 131.824C129.952 131.824 134.987 127.856 140.107 119.92C141.558 117.701 143.008 115.013 144.459 111.856C145.995 108.784 147.446 105.285 148.811 101.36C149.75 98.8 150.646 96.24 151.499 93.68C152.438 91.0347 153.376 88.3893 154.315 85.744C151.243 90.6933 148.171 94.6613 145.099 97.648C141.942 100.635 139.04 102.128 136.395 102.128C134.262 102.128 132.555 101.147 131.275 99.184C129.91 97.3067 129.227 94.704 129.227 91.376C129.227 83.3547 132.811 74.992 139.979 66.288C141.174 64.8373 142.539 63.5147 144.075 62.32C145.611 61.1253 147.275 60.0587 149.067 59.12C152.736 57.2427 156.278 56.304 159.691 56.304C163.872 56.304 167.2 57.6693 169.675 60.4C170.272 60.9973 170.571 61.68 170.571 62.448C170.571 63.8987 169.803 64.4533 168.267 64.112C167.414 61.04 165.451 59.504 162.379 59.504C158.795 59.504 154.571 62.0213 149.707 67.056C146.123 70.8107 143.008 74.864 140.363 79.216C136.779 85.1893 134.987 90.1813 134.987 94.192C134.987 97.0933 136.054 98.544 138.187 98.544C140.747 98.544 143.648 96.6667 146.891 92.912C150.39 88.7307 154.187 82.7573 158.283 74.992C159.904 71.92 161.184 69.8293 162.123 68.72C163.488 67.3547 165.11 66.7147 166.987 66.8L169.675 67.184C170.699 67.44 171.595 67.4827 172.363 67.312C171.766 67.9093 171.168 68.5493 170.571 69.232C169.974 69.9147 169.462 70.5973 169.035 71.28C168.267 72.4747 167.414 74.0107 166.475 75.888C165.536 77.68 164.598 79.8133 163.659 82.288C162.635 84.9333 161.654 87.4933 160.715 89.968C159.862 92.4427 158.966 94.7893 158.027 97.008C155.894 102.469 153.931 107.205 152.139 111.216C150.347 115.227 148.768 118.555 147.403 121.2C146.464 123.077 145.27 124.784 143.819 126.32C142.454 127.856 140.875 129.307 139.083 130.672C134.902 133.829 130.55 135.408 126.027 135.408ZM192.573 52.464C189.672 52.464 188.221 51.056 188.221 48.24C188.221 45.424 189.586 44.016 192.317 44.016C195.218 44.016 196.669 45.424 196.669 48.24C196.669 51.056 195.304 52.464 192.573 52.464ZM175.165 102C172.69 102 171.453 100.763 171.453 98.288C171.453 96.752 171.965 94.6613 172.989 92.016C175.208 86.5547 177.298 81.52 179.261 76.912C181.224 72.304 183.058 68.1227 184.765 64.368C185.021 63.9413 185.149 63.472 185.149 62.96C185.149 61.7653 184.594 60.4853 183.485 59.12L190.525 58.992C192.914 58.992 194.109 59.5893 194.109 60.784C194.109 61.1253 194.024 61.5093 193.853 61.936C193.682 62.2773 193.469 62.7893 193.213 63.472L181.437 90.736C180.242 93.552 179.645 95.9413 179.645 97.904C179.645 99.952 180.285 101.317 181.565 102H175.165ZM213.805 57.456C206.552 57.456 201.048 55.4933 197.293 51.568C194.221 48.496 192.685 44.5707 192.685 39.792C192.685 35.696 193.922 31.7707 196.397 28.016C197.592 26.0533 199.085 24.3467 200.877 22.896C202.669 21.36 204.674 20.0373 206.893 18.928C210.477 17.136 214.274 15.7707 218.285 14.832C222.381 13.8933 226.69 13.424 231.213 13.424C234.456 13.424 238.338 13.7227 242.861 14.32C247.384 14.9173 252.546 15.8133 258.349 17.008C265.432 18.3733 271.405 19.4827 276.269 20.336C281.133 21.104 284.802 21.488 287.277 21.488C288.728 21.488 290.178 21.36 291.629 21.104C293.08 20.848 294.488 20.5493 295.853 20.208C300.034 19.0987 302.381 17.4773 302.893 15.344C303.149 14.4907 303.576 14.064 304.173 14.064C304.685 14.064 304.941 14.32 304.941 14.832C304.941 15.1733 304.813 15.5573 304.557 15.984C302.765 19.9093 299.138 22.6827 293.677 24.304C290.349 25.328 286.808 25.84 283.053 25.84C281.688 25.84 278.829 25.584 274.477 25.072C270.125 24.56 264.28 23.7493 256.941 22.64C251.906 21.7867 247.384 21.1893 243.373 20.848C239.448 20.4213 236.12 20.208 233.389 20.208C223.917 20.208 216.152 22.2133 210.093 26.224C208.472 27.3333 206.936 28.5707 205.485 29.936C204.12 31.3013 202.882 32.8373 201.773 34.544C199.64 37.9573 198.573 41.2 198.573 44.272C198.573 47.6853 199.768 50.3733 202.157 52.336C204.632 54.2133 208.301 55.152 213.165 55.152C219.394 55.152 226.008 52.6773 233.005 47.728C235.992 45.68 238.68 43.3333 241.069 40.688C243.458 38.0427 245.592 35.0133 247.469 31.6C247.81 31.0027 248.365 30.704 249.133 30.704C249.901 30.704 250.157 31.0453 249.901 31.728C246.573 39.4933 241.794 45.6373 235.565 50.16C232.237 52.5493 228.781 54.384 225.197 55.664C221.613 56.8587 217.816 57.456 213.805 57.456ZM206.893 107.632C202.626 107.632 199 106.608 196.013 104.56C193.368 102.768 192.045 100.251 192.045 97.008C192.045 94.704 192.813 92.7413 194.349 91.12C196.056 89.1573 198.146 88.176 200.621 88.176C202.242 88.176 203.65 88.7733 204.845 89.968C205.784 90.992 206.253 92.272 206.253 93.808C206.253 95.856 205.528 97.52 204.077 98.8C202.712 100.08 201.133 100.72 199.341 100.72C197.805 100.72 196.44 100.123 195.245 98.928C195.501 100.72 196.653 102 198.701 102.768C199.981 103.28 201.346 103.536 202.797 103.536C205.357 103.536 207.789 103.109 210.093 102.256C212.397 101.403 214.53 100.208 216.493 98.672C219.736 96.1973 223.064 92.3573 226.477 87.152C228.525 84.08 230.616 80.7093 232.749 77.04C234.968 73.3707 237.186 69.4027 239.405 65.136C231.81 66.16 225.325 67.568 219.949 69.36C211.757 72.176 207.661 76.1013 207.661 81.136C207.661 84.2933 208.984 86.5547 211.629 87.92C212.056 88.176 212.141 88.56 211.885 89.072C211.629 89.4987 211.288 89.6267 210.861 89.456C209.069 88.5173 207.448 86.9813 205.997 84.848C204.632 82.7147 203.949 80.496 203.949 78.192C203.949 72.816 207.704 68.848 215.213 66.288C220.589 64.4107 229.165 63.088 240.941 62.32L247.085 50.416C251.096 42.5653 255.49 36.72 260.269 32.88C265.133 29.04 270.168 27.12 275.373 27.12C276.824 27.12 278.317 27.248 279.853 27.504C280.45 27.6747 280.749 27.888 280.749 28.144C280.749 28.5707 280.493 28.784 279.981 28.784C279.554 28.784 279.085 28.7413 278.573 28.656C278.061 28.5707 277.592 28.528 277.165 28.528C268.546 28.528 261.506 35.3547 256.045 49.008C255.448 50.3733 254.722 52.1227 253.869 54.256C253.101 56.304 252.162 58.736 251.053 61.552C254.552 61.296 257.368 61.04 259.501 60.784C260.866 57.8827 263.64 55.3227 267.821 53.104C269.016 52.4213 270.168 52.08 271.277 52.08C273.41 52.08 274.477 53.0187 274.477 54.896C274.477 57.968 271.533 60.4 265.645 62.192C264.45 62.448 263 62.704 261.293 62.96C260.44 64.6667 259.8 66.416 259.373 68.208C259.032 70 258.818 71.8773 258.733 73.84C258.733 74.352 258.477 74.608 257.965 74.608C257.453 74.5227 257.154 74.224 257.069 73.712C256.984 71.7493 257.069 69.872 257.325 68.08C257.666 66.288 258.136 64.6667 258.733 63.216C257.965 63.3013 255.064 63.5573 250.029 63.984C242.605 82.416 233.986 95.1307 224.173 102.128C218.968 105.797 213.208 107.632 206.893 107.632ZM271.058 102C268.583 102 267.346 100.763 267.346 98.288C267.346 96.752 267.858 94.6613 268.882 92.016L293.714 28.528C293.885 28.272 293.97 28.016 293.97 27.76C293.97 27.504 293.97 27.2907 293.97 27.12C293.97 25.84 293.458 24.5173 292.434 23.152H299.346C301.735 23.152 302.93 23.7067 302.93 24.816C302.93 25.328 302.674 26.224 302.162 27.504L277.33 90.736C276.221 93.4667 275.666 95.8987 275.666 98.032C275.666 99.9947 276.263 101.317 277.458 102H271.058ZM299.705 102C293.476 102 290.361 98.2027 290.361 90.608C290.361 86.8533 291.257 82.8853 293.049 78.704C295.609 72.6453 299.236 67.5253 303.929 63.344C308.537 59.248 312.889 57.2 316.985 57.2C323.3 57.2 326.457 60.912 326.457 68.336C326.457 72.176 325.518 76.2293 323.641 80.496C321.422 85.616 318.222 90.2667 314.041 94.448C308.836 99.4827 304.057 102 299.705 102ZM301.753 99.184C303.716 99.184 305.806 98.3733 308.025 96.752C310.841 94.704 314.041 90.4373 317.625 83.952C321.55 76.9547 323.513 71.3227 323.513 67.056C323.513 63.216 321.892 61.296 318.649 61.296C316.089 61.296 313.188 62.9173 309.945 66.16C306.788 69.3173 304.1 73.328 301.881 78.192C298.894 84.592 297.401 89.712 297.401 93.552C297.401 97.3067 298.852 99.184 301.753 99.184ZM323.905 102.896C325.526 98.8 327.66 93.68 330.305 87.536C333.036 81.392 336.108 74.3947 339.521 66.544C340.204 64.8373 340.844 63.472 341.441 62.448C342.124 61.424 342.721 60.6133 343.233 60.016C344.342 58.736 345.836 58.224 347.713 58.48L350.401 58.864C350.998 58.9493 351.51 59.0347 351.937 59.12C352.449 59.12 352.876 59.0773 353.217 58.992C351.51 59.8453 349.505 62.2773 347.201 66.288C344.982 70.2133 342.508 75.5893 339.777 82.416C340.716 81.2213 341.91 79.6427 343.361 77.68C344.812 75.632 346.646 73.2853 348.865 70.64C351.34 67.7387 353.9 65.0507 356.545 62.576C359.19 60.1013 361.75 58.864 364.225 58.864C366.188 58.864 367.596 59.504 368.449 60.784C369.302 62.064 369.729 63.5147 369.729 65.136C369.729 67.0987 368.961 68.848 367.425 70.384C365.889 71.92 364.396 72.688 362.945 72.688C362.348 72.688 361.708 72.56 361.025 72.304C360.428 72.048 360.129 71.664 360.129 71.152C360.129 70.7253 360.214 70.3413 360.385 70C360.556 69.5733 360.641 69.104 360.641 68.592C360.641 67.312 360.044 66.672 358.849 66.672C358.422 66.672 357.825 66.8 357.057 67.056C356.374 67.2267 355.436 67.9093 354.241 69.104C351.852 71.3227 349.249 74.0107 346.433 77.168C343.702 80.24 341.1 83.696 338.625 87.536C336.236 91.376 334.273 95.6 332.737 100.208C332.31 101.488 331.03 102.171 328.897 102.256C325.996 102.427 324.332 102.64 323.905 102.896ZM395.319 102.256C393.442 102.256 391.906 101.701 390.711 100.592C389.004 99.1413 388.151 96.7093 388.151 93.296C388.151 91.0773 388.535 88.56 389.303 85.744C386.402 90.608 383.372 94.576 380.215 97.648C376.972 100.635 374.071 102.128 371.511 102.128C369.292 102.128 367.543 101.147 366.263 99.184C364.898 97.3067 364.215 94.704 364.215 91.376C364.215 83.2693 367.842 74.9067 375.095 66.288C376.29 64.8373 377.655 63.5147 379.191 62.32C380.727 61.1253 382.391 60.0587 384.183 59.12C387.852 57.2427 391.394 56.304 394.807 56.304C398.988 56.304 402.316 57.6693 404.791 60.4C405.388 60.9973 405.687 61.68 405.687 62.448C405.687 63.8987 404.919 64.4533 403.383 64.112C402.53 61.04 400.524 59.504 397.367 59.504C393.783 59.504 389.559 62.0213 384.695 67.056C382.988 68.9333 381.367 70.896 379.831 72.944C378.295 74.9067 376.844 76.9973 375.479 79.216C371.81 85.36 369.975 90.352 369.975 94.192C369.975 97.0933 371.084 98.544 373.303 98.544C375.778 98.544 378.636 96.6667 381.879 92.912C383.671 90.864 385.506 88.3467 387.383 85.36C389.26 82.3733 391.223 78.9173 393.271 74.992C394.124 73.3707 394.892 72.048 395.575 71.024C396.258 70 396.812 69.232 397.239 68.72C398.604 67.3547 400.226 66.7147 402.103 66.8L404.663 67.184C405.772 67.44 406.711 67.4827 407.479 67.312C406.711 68.08 405.772 69.3173 404.663 71.024C403.639 72.6453 402.444 74.7787 401.079 77.424C399.628 80.24 398.434 82.8 397.495 85.104C396.556 87.408 395.916 89.456 395.575 91.248C395.404 92.1013 395.276 92.912 395.191 93.68C395.106 94.3627 395.063 95.0027 395.063 95.6C395.063 97.8187 395.66 98.928 396.855 98.928C398.562 98.928 400.908 97.0507 403.895 93.296L404.407 92.656L406.199 93.808L405.687 94.576C402.188 99.696 398.732 102.256 395.319 102.256Z" fill="#D13FA3"/>
</svg>
